# Blender v2.74 (sub 0) OBJ File: 'Shield.blend'
# www.blender.org
o Sphere
v 0.115355 0.000000 4.482063
v -0.107647 0.000000 4.237063
v -0.339148 0.000000 3.981686
v -0.598403 -0.000000 3.719492
v -0.831470 -0.000000 3.454483
v -0.923880 -0.000000 3.190951
v -0.980785 -0.000000 2.918908
v 0.505537 -0.000000 4.482063
v 0.657720 0.000000 4.237063
v 0.771992 0.000000 3.981686
v 0.845403 -0.000000 3.719492
v 0.893502 -0.000000 3.454483
v 0.947613 0.000000 3.190951
v 0.980785 -0.000000 2.918908
v 0.736688 -2.543416 3.049428
v 0.599511 -2.543416 3.149024
v 0.716199 -2.543416 3.321547
v 0.547670 -2.543416 3.300819
v 0.603438 -2.543416 3.529819
v 0.450432 -2.543416 3.402242
v 0.389385 -2.543416 3.428866
v -0.359399 -2.543416 3.049428
v -0.040437 -2.543416 3.149025
v -0.213019 -2.543416 3.321547
v 0.057877 -2.543416 3.300818
v 0.323138 -0.000000 4.713650
v 0.119069 -2.543416 3.359003
v 0.095468 -2.543416 3.599578
v 0.254250 -2.543416 3.428866
v 0.323138 -2.543416 3.657040
v 0.323138 -0.000000 2.964065
v 0.323138 -0.000000 4.375389
v 0.323138 -0.000000 4.055793
v 0.323138 -0.000000 3.754863
v 0.323138 -0.000000 3.472598
v 0.323138 -0.000000 3.208999
v 0.323138 -2.543416 3.437856
v 0.210677 -2.543416 3.642534
v 0.428702 -2.543416 3.642534
v 0.604956 -2.543416 3.056113
v 0.739315 -2.543416 3.191039
v 0.669960 -2.543416 3.435940
v 0.579987 -2.543416 3.229915
v -0.293177 -2.543416 3.191039
v -0.074974 -2.543416 3.056112
v 0.523140 -2.543416 3.599578
v -0.120275 -2.543416 3.435940
v 0.004050 -2.543416 3.229915
v 0.503899 -2.543416 3.359003
v -0.017446 -2.543416 3.529819
v 0.185358 -2.543416 3.402241
v 0.579845 -1.889210 3.229915
v 0.323138 -1.889210 0.763491
v 0.323138 -1.889210 1.139752
v 0.323138 -1.889210 3.440114
v 0.323138 -1.889210 1.892270
v 0.323138 -1.889210 0.010974
v -0.075261 -1.889210 3.056112
v 0.604668 -1.889210 3.056113
v 0.503861 -1.889210 3.359540
v 0.323138 -1.889210 1.516009
v 0.323138 -1.889210 0.387232
v 0.003907 -1.889210 3.229915
v 0.450423 -1.889210 3.403568
v 0.185348 -1.889210 3.403567
v 0.057788 -1.889210 3.300851
v 0.547580 -1.889210 3.300852
v -0.040643 -1.889210 3.149025
v 0.599305 -1.889210 3.149024
v 0.119030 -1.889210 3.359540
v 0.254250 -1.889210 3.430863
v 0.389384 -1.889210 3.430863
v 0.115355 -0.000001 -4.482063
v -0.107647 -0.000001 -4.237063
v -0.339148 -0.000001 -3.981686
v -0.598403 -0.000001 -3.719492
v -0.831470 -0.000001 -3.454483
v -0.923880 -0.000001 -3.190951
v -0.980785 -0.000001 -2.918908
v -1.000000 -0.000000 0.000000
v 0.505537 -0.000001 -4.482063
v 0.657720 -0.000001 -4.237063
v 0.771992 -0.000001 -3.981686
v 0.845403 -0.000001 -3.719492
v 0.893502 -0.000001 -3.454483
v 0.947613 -0.000000 -3.190951
v 0.980785 -0.000001 -2.918908
v 1.000000 -0.000001 0.000000
v 0.736688 -2.543416 -3.049428
v 0.599511 -2.543417 -3.149024
v 0.716199 -2.543416 -3.321547
v 0.547670 -2.543417 -3.300819
v 0.603438 -2.543416 -3.529818
v 0.450432 -2.543417 -3.402241
v 0.389385 -2.543417 -3.428865
v -0.391609 -2.543416 0.000000
v -0.359399 -2.543416 -3.049428
v -0.040437 -2.543417 -3.149024
v -0.213019 -2.543416 -3.321547
v 0.057877 -2.543417 -3.300818
v 0.323138 -0.000001 -4.713650
v 0.119069 -2.543417 -3.359003
v 0.095468 -2.543416 -3.599577
v 0.254250 -2.543417 -3.428865
v 0.323138 -2.543416 -3.657039
v 0.725953 -2.543416 0.000000
v 0.323138 -0.000001 -2.964065
v 0.323138 -0.000000 0.000000
v 0.323138 -0.000001 -4.375389
v 0.323138 -0.000001 -4.055793
v 0.323138 -0.000001 -3.754863
v 0.323138 -0.000001 -3.472598
v 0.323138 -0.000001 -3.208999
v 0.323138 -2.543417 -3.437856
v 0.210677 -2.543416 -3.642534
v 0.428702 -2.543416 -3.642534
v 0.604956 -2.543417 -3.056113
v 0.604514 -2.543417 0.000000
v 0.739315 -2.543416 -3.191038
v 0.669960 -2.543416 -3.435940
v 0.579987 -2.543417 -3.229914
v -0.293177 -2.543416 -3.191038
v -0.074974 -2.543417 -3.056112
v 0.523140 -2.543416 -3.599577
v -0.120275 -2.543416 -3.435940
v 0.004050 -2.543417 -3.229914
v 0.503899 -2.543417 -3.359003
v -0.104753 -2.543417 0.000000
v -0.017446 -2.543416 -3.529818
v 0.185358 -2.543417 -3.402241
v 0.579845 -1.889211 -3.229914
v 0.323138 -1.889210 -0.763491
v 0.323138 -1.889211 -1.139751
v 0.323138 -1.889211 -3.440113
v 0.323138 -1.889211 -1.892269
v 0.323138 -1.889210 -0.010973
v 0.323138 -1.889210 0.000000
v -0.075261 -1.889211 -3.056112
v 0.604668 -1.889211 -3.056113
v 0.503861 -1.889211 -3.359540
v 0.323138 -1.889211 -1.516009
v 0.323138 -1.889210 -0.387231
v -0.069759 -1.889210 0.000000
v 0.639509 -1.889210 0.000000
v 0.003907 -1.889211 -3.229914
v 0.450423 -1.889211 -3.403567
v 0.185348 -1.889211 -3.403567
v 0.057788 -1.889211 -3.300851
v 0.547580 -1.889211 -3.300851
v -0.040643 -1.889211 -3.149024
v 0.599305 -1.889211 -3.149024
v 0.119030 -1.889211 -3.359540
v 0.254250 -1.889211 -3.430863
v 0.389384 -1.889211 -3.430863
vn -0.553100 -0.001700 0.833100
vn 0.399800 -0.001900 0.916600
vn -0.691900 -0.000600 0.722000
vn -0.937300 -0.000300 0.348400
vn -1.000000 -0.000400 -0.001800
vn 0.909900 0.000200 0.414700
vn -0.923900 0.083900 -0.373400
vn -0.810000 0.119900 -0.574000
vn 0.659000 0.211600 -0.721800
vn 0.717500 0.242400 -0.653000
vn -0.401700 0.242600 -0.883100
vn 0.971500 0.236800 -0.010300
vn -0.994200 0.107100 -0.006500
vn 0.883800 0.219200 -0.413300
vn 0.722400 0.221800 -0.654900
vn -0.645700 0.174800 -0.743300
vn 0.628800 -0.000600 0.777600
vn 0.998300 0.000400 0.058500
vn 0.799100 0.000100 0.601200
vn 0.998500 -0.053400 0.011400
vn 0.972100 0.000300 0.234600
vn 0.134500 -0.003000 0.990900
vn 0.759200 0.211300 -0.615500
vn -0.876200 -0.000200 0.481900
vn -0.368300 -0.002800 0.929700
vn -0.988700 0.088700 -0.120600
vn -0.129200 0.314300 -0.940500
vn 0.829600 0.228400 -0.509500
vn -0.981500 0.080400 -0.173800
vn 0.717200 0.267300 -0.643500
vn -0.000000 -1.000000 0.000000
vn 0.000000 1.000000 -0.000000
vn -0.796500 -0.000100 0.604700
vn -0.133100 -0.003400 0.991100
vn -0.553100 -0.001700 -0.833100
vn 0.408200 -0.002800 -0.912900
vn -0.691900 -0.000600 -0.722000
vn -0.937100 -0.000400 -0.349100
vn -1.000000 -0.000400 0.001800
vn 0.910300 0.000100 -0.414000
vn -0.923900 0.083900 0.373400
vn -0.810000 0.119900 0.574000
vn 0.659000 0.211600 0.721800
vn 0.337900 0.254100 0.906200
vn -0.401700 0.242600 0.883100
vn 0.971500 0.236800 0.010300
vn -0.995400 0.095700 -0.003500
vn 0.883800 0.219200 0.413300
vn 0.513600 0.212600 0.831300
vn -0.645700 0.174800 0.743300
vn 0.635900 -0.001600 -0.771800
vn 0.998300 0.000300 -0.057600
vn 0.801900 -0.000400 -0.597400
vn 0.998500 -0.053400 -0.011400
vn 0.972300 0.000200 -0.233900
vn 0.138300 -0.003400 -0.990400
vn 0.759200 0.211300 0.615500
vn -0.875900 -0.000300 -0.482400
vn -0.368300 -0.002800 -0.929700
vn -0.996500 0.081600 -0.018500
vn -0.129200 0.314300 0.940500
vn 0.829600 0.228400 0.509500
vn -0.981500 0.080400 0.173800
vn 0.121400 0.315200 0.941200
vn -0.796300 -0.000200 -0.604900
vn -0.133100 -0.003400 -0.991100
vn -0.546300 -0.000700 0.837600
vn 0.408200 -0.002800 0.912900
vn -0.689100 -0.000100 0.724700
vn -0.937100 -0.000400 0.349100
vn -0.998500 0.053400 0.009700
vn 0.910300 0.000100 0.414000
vn -0.980200 0.087400 -0.177900
vn -0.957000 0.111000 -0.267900
vn 0.695600 0.207400 -0.687800
vn 0.337900 0.254100 -0.906200
vn -0.833000 0.196000 -0.517400
vn 0.972500 0.232600 -0.006400
vn -0.995400 0.095700 0.003500
vn 0.954200 0.222900 -0.199600
vn 0.513600 0.212600 -0.831300
vn -0.902600 0.149000 -0.403900
vn 0.635900 -0.001600 0.771800
vn 0.998300 0.000300 0.057600
vn 0.801900 -0.000400 0.597400
vn 1.000000 0.000400 -0.000100
vn 0.972300 0.000200 0.233900
vn 0.138300 -0.003400 0.990400
vn 0.733800 0.212200 -0.645400
vn -0.875900 -0.000300 0.482400
vn -0.360500 -0.001900 0.932800
vn -0.996500 0.081600 0.018500
vn -0.760900 0.248900 -0.599300
vn 0.918800 0.227800 -0.322200
vn -0.976500 0.078600 -0.200500
vn 0.121400 0.315200 -0.941200
vn -0.796300 -0.000200 0.604900
vn -0.129400 -0.003000 0.991600
vn -0.546300 -0.000700 -0.837600
vn 0.399800 -0.001900 -0.916600
vn -0.689100 -0.000100 -0.724700
vn -0.937300 -0.000300 -0.348400
vn -0.998500 0.053400 -0.009700
vn 0.909900 0.000200 -0.414700
vn -0.980200 0.087400 0.177900
vn -0.957000 0.111000 0.267900
vn 0.695600 0.207400 0.687800
vn 0.717500 0.242400 0.653000
vn -0.833000 0.196000 0.517400
vn 0.972500 0.232600 0.006400
vn -0.994200 0.107100 0.006500
vn 0.954200 0.222900 0.199600
vn 0.722400 0.221800 0.654900
vn -0.902600 0.149000 0.403900
vn 0.628800 -0.000600 -0.777600
vn 0.998300 0.000400 -0.058500
vn 0.799100 0.000100 -0.601200
vn 1.000000 0.000400 0.000100
vn 0.972100 0.000300 -0.234600
vn 0.134500 -0.003000 -0.990900
vn 0.733800 0.212200 0.645400
vn -0.876200 -0.000200 -0.481900
vn -0.360500 -0.001900 -0.932800
vn -0.988700 0.088700 0.120600
vn -0.760900 0.248900 0.599300
vn 0.918800 0.227800 0.322200
vn -0.976500 0.078600 0.200500
vn 0.717200 0.267300 0.643500
vn -0.796500 -0.000100 -0.604700
vn -0.129400 -0.003000 -0.991600
s off
f 51//1 65//1 70//1
f 21//2 20//2 64//2
f 27//3 70//3 66//3
f 45//4 23//4 68//4
f 45//5 58//5 143//5
f 18//6 43//6 52//6
f 12//7 17//7 42//7
f 11//8 42//8 19//8
f 3//9 50//9 47//9
f 2//10 1//10 38//10
f 9//11 46//11 39//11
f 7//12 22//12 96//12
f 14//13 88//13 106//13
f 6//14 44//14 22//14
f 3//15 2//15 28//15
f 10//16 19//16 46//16
f 20//17 49//17 60//17
f 16//18 40//18 59//18
f 49//19 18//19 67//19
f 118//20 144//20 59//20
f 43//21 16//21 69//21
f 37//22 21//22 72//22
f 4//23 47//23 24//23
f 23//24 48//24 63//24
f 29//25 71//25 65//25
f 13//26 14//26 15//26
f 8//27 39//27 30//27
f 5//28 24//28 44//28
f 13//29 41//29 17//29
f 1//30 26//30 30//30
f 108//31 88//31 14//31
f 108//31 31//31 7//31
f 1//31 2//31 32//31
f 9//31 32//31 33//31
f 6//31 7//31 31//31
f 12//31 35//31 36//31
f 11//31 34//31 35//31
f 13//31 36//31 31//31
f 2//31 3//31 33//31
f 3//31 4//31 34//31
f 4//31 5//31 35//31
f 5//31 6//31 36//31
f 8//31 26//31 32//31
f 10//31 33//31 34//31
f 37//32 29//32 38//32
f 37//32 30//32 39//32
f 118//32 40//32 15//32
f 16//32 41//32 15//32
f 18//32 42//32 17//32
f 45//32 22//32 44//32
f 21//32 39//32 46//32
f 48//32 24//32 47//32
f 23//32 44//32 24//32
f 43//32 17//32 41//32
f 49//32 19//32 42//32
f 20//32 46//32 19//32
f 128//32 96//32 22//32
f 25//32 47//32 50//32
f 51//32 27//32 50//32
f 29//32 51//32 28//32
f 52//32 53//32 54//32
f 67//32 54//32 61//32
f 54//32 53//32 63//32
f 61//32 54//32 66//32
f 56//32 61//32 70//32
f 59//32 57//32 62//32
f 64//32 56//32 55//32
f 53//32 62//32 68//32
f 69//32 62//32 53//32
f 62//32 57//32 58//32
f 60//32 61//32 56//32
f 55//32 56//32 65//32
f 57//32 59//32 144//32
f 143//32 58//32 57//32
f 48//33 25//33 66//33
f 37//34 55//34 71//34
f 152//35 147//35 130//35
f 95//36 154//36 146//36
f 148//37 152//37 102//37
f 123//38 138//38 150//38
f 143//39 138//39 123//39
f 92//40 149//40 131//40
f 120//41 91//41 85//41
f 93//42 120//42 84//42
f 125//43 129//43 75//43
f 74//44 103//44 115//44
f 116//45 124//45 82//45
f 96//46 97//46 79//46
f 87//47 89//47 106//47
f 97//48 122//48 78//48
f 75//49 129//49 103//49
f 124//50 93//50 83//50
f 94//51 146//51 140//51
f 90//52 151//52 139//52
f 127//53 140//53 149//53
f 139//54 144//54 118//54
f 121//55 131//55 151//55
f 114//56 134//56 154//56
f 99//57 125//57 76//57
f 98//58 150//58 145//58
f 147//59 153//59 104//59
f 86//60 119//60 89//60
f 105//61 116//61 81//61
f 122//62 99//62 77//62
f 91//63 119//63 86//63
f 73//64 115//64 105//64
f 108//31 107//31 87//31
f 79//31 107//31 108//31
f 109//31 74//31 73//31
f 82//31 83//31 110//31
f 107//31 79//31 78//31
f 85//31 86//31 113//31
f 84//31 85//31 112//31
f 86//31 87//31 107//31
f 110//31 75//31 74//31
f 111//31 76//31 75//31
f 112//31 77//31 76//31
f 113//31 78//31 77//31
f 81//31 82//31 109//31
f 83//31 84//31 111//31
f 114//32 105//32 115//32
f 116//32 105//32 114//32
f 118//32 106//32 89//32
f 89//32 119//32 90//32
f 91//32 120//32 92//32
f 122//32 97//32 123//32
f 124//32 116//32 95//32
f 125//32 99//32 126//32
f 99//32 122//32 98//32
f 119//32 91//32 121//32
f 120//32 93//32 127//32
f 93//32 124//32 94//32
f 97//32 96//32 128//32
f 129//32 125//32 100//32
f 130//32 103//32 129//32
f 104//32 115//32 103//32
f 133//32 132//32 131//32
f 141//32 133//32 149//32
f 133//32 148//32 145//32
f 141//32 152//32 148//32
f 135//32 147//32 152//32
f 142//32 136//32 139//32
f 134//32 135//32 146//32
f 132//32 145//32 150//32
f 132//32 142//32 151//32
f 142//32 150//32 138//32
f 135//32 141//32 140//32
f 134//32 153//32 147//32
f 144//32 139//32 136//32
f 143//32 137//32 136//32
f 126//65 145//65 148//65
f 153//66 134//66 114//66
f 27//67 51//67 70//67
f 72//68 21//68 64//68
f 25//69 27//69 66//69
f 58//70 45//70 68//70
f 128//71 45//71 143//71
f 67//72 18//72 52//72
f 11//73 12//73 42//73
f 10//74 11//74 19//74
f 4//75 3//75 47//75
f 28//76 2//76 38//76
f 8//77 9//77 39//77
f 80//78 7//78 96//78
f 15//79 14//79 106//79
f 7//80 6//80 22//80
f 50//81 3//81 28//81
f 9//82 10//82 46//82
f 64//83 20//83 60//83
f 69//84 16//84 59//84
f 60//85 49//85 67//85
f 40//86 118//86 59//86
f 52//87 43//87 69//87
f 55//88 37//88 72//88
f 5//89 4//89 24//89
f 68//90 23//90 63//90
f 51//91 29//91 65//91
f 41//92 13//92 15//92
f 26//93 8//93 30//93
f 6//94 5//94 44//94
f 12//95 13//95 17//95
f 38//96 1//96 30//96
f 31//31 108//31 14//31
f 80//31 108//31 7//31
f 26//31 1//31 32//31
f 10//31 9//31 33//31
f 36//31 6//31 31//31
f 13//31 12//31 36//31
f 12//31 11//31 35//31
f 14//31 13//31 31//31
f 32//31 2//31 33//31
f 33//31 3//31 34//31
f 34//31 4//31 35//31
f 35//31 5//31 36//31
f 9//31 8//31 32//31
f 11//31 10//31 34//31
f 30//32 37//32 38//32
f 21//32 37//32 39//32
f 106//32 118//32 15//32
f 40//32 16//32 15//32
f 43//32 18//32 17//32
f 23//32 45//32 44//32
f 20//32 21//32 46//32
f 25//32 48//32 47//32
f 48//32 23//32 24//32
f 16//32 43//32 41//32
f 18//32 49//32 42//32
f 49//32 20//32 19//32
f 45//32 128//32 22//32
f 27//32 25//32 50//32
f 28//32 51//32 50//32
f 38//32 29//32 28//32
f 67//32 52//32 54//32
f 60//32 67//32 61//32
f 66//32 54//32 63//32
f 70//32 61//32 66//32
f 65//32 56//32 70//32
f 69//32 59//32 62//32
f 72//32 64//32 55//32
f 63//32 53//32 68//32
f 52//32 69//32 53//32
f 68//32 62//32 58//32
f 64//32 60//32 56//32
f 71//32 55//32 65//32
f 137//32 57//32 144//32
f 137//32 143//32 57//32
f 63//97 48//97 66//97
f 29//98 37//98 71//98
f 102//99 152//99 130//99
f 94//100 95//100 146//100
f 100//101 148//101 102//101
f 98//102 123//102 150//102
f 128//103 143//103 123//103
f 121//104 92//104 131//104
f 84//105 120//105 85//105
f 83//106 93//106 84//106
f 76//107 125//107 75//107
f 73//108 74//108 115//108
f 81//109 116//109 82//109
f 80//110 96//110 79//110
f 88//111 87//111 106//111
f 79//112 97//112 78//112
f 74//113 75//113 103//113
f 82//114 124//114 83//114
f 127//115 94//115 140//115
f 117//116 90//116 139//116
f 92//117 127//117 149//117
f 117//118 139//118 118//118
f 90//119 121//119 151//119
f 95//120 114//120 154//120
f 77//121 99//121 76//121
f 126//122 98//122 145//122
f 130//123 147//123 104//123
f 87//124 86//124 89//124
f 101//125 105//125 81//125
f 78//126 122//126 77//126
f 85//127 91//127 86//127
f 101//128 73//128 105//128
f 88//31 108//31 87//31
f 80//31 79//31 108//31
f 101//31 109//31 73//31
f 109//31 82//31 110//31
f 113//31 107//31 78//31
f 112//31 85//31 113//31
f 111//31 84//31 112//31
f 113//31 86//31 107//31
f 109//31 110//31 74//31
f 110//31 111//31 75//31
f 111//31 112//31 76//31
f 112//31 113//31 77//31
f 101//31 81//31 109//31
f 110//31 83//31 111//31
f 104//32 114//32 115//32
f 95//32 116//32 114//32
f 117//32 118//32 89//32
f 117//32 89//32 90//32
f 121//32 91//32 92//32
f 98//32 122//32 123//32
f 94//32 124//32 95//32
f 100//32 125//32 126//32
f 126//32 99//32 98//32
f 90//32 119//32 121//32
f 92//32 120//32 127//32
f 127//32 93//32 94//32
f 123//32 97//32 128//32
f 102//32 129//32 100//32
f 102//32 130//32 129//32
f 130//32 104//32 103//32
f 149//32 133//32 131//32
f 140//32 141//32 149//32
f 132//32 133//32 145//32
f 133//32 141//32 148//32
f 141//32 135//32 152//32
f 151//32 142//32 139//32
f 154//32 134//32 146//32
f 142//32 132//32 150//32
f 131//32 132//32 151//32
f 136//32 142//32 138//32
f 146//32 135//32 140//32
f 135//32 134//32 147//32
f 137//32 144//32 136//32
f 138//32 143//32 136//32
f 100//129 126//129 148//129
f 104//130 153//130 114//130
